<svg xmlns="http://www.w3.org/2000/svg" viewBox="0 0 900 560" role="img" aria-label="Premium anime material collection cover">
  <defs>
    <linearGradient id="bg" x1="0" x2="1" y1="1" y2="0">
      <stop stop-color="#06111f"/><stop offset=".44" stop-color="#151341"/><stop offset="1" stop-color="#33164e"/>
    </linearGradient>
    <linearGradient id="line" x1="0" x2="1">
      <stop stop-color="#50d5ff"/><stop offset=".55" stop-color="#8f7bff"/><stop offset="1" stop-color="#36f2aa"/>
    </linearGradient>
    <filter id="glow" x="-40%" y="-40%" width="180%" height="180%"><feGaussianBlur stdDeviation="12" result="b"/><feMerge><feMergeNode in="b"/><feMergeNode in="SourceGraphic"/></feMerge></filter>
  </defs>
  <rect width="900" height="560" fill="url(#bg)"/>
  <circle cx="172" cy="148" r="144" fill="#50d5ff" opacity=".16" filter="url(#glow)"/>
  <circle cx="706" cy="350" r="210" fill="#8f7bff" opacity=".18" filter="url(#glow)"/>
  <g transform="translate(112 78)">
    <rect x="0" y="0" width="232" height="330" rx="26" fill="#fff" opacity=".08" stroke="#9fb6ff" stroke-opacity=".25"/>
    <circle cx="116" cy="104" r="56" fill="#50d5ff" opacity=".22"/>
    <path d="M66 248c18-72 82-92 116 0" fill="none" stroke="url(#line)" stroke-width="12" stroke-linecap="round"/>
  </g>
  <g transform="translate(366 118)">
    <rect x="0" y="0" width="232" height="330" rx="26" fill="#fff" opacity=".1" stroke="url(#line)" stroke-width="2"/>
    <circle cx="116" cy="98" r="58" fill="#8f7bff" opacity=".26"/>
    <path d="M70 230c28-58 96-78 156 0" fill="none" stroke="url(#line)" stroke-width="12" stroke-linecap="round"/>
  </g>
  <g transform="translate(620 78)">
    <rect x="0" y="0" width="232" height="330" rx="26" fill="#fff" opacity=".08" stroke="#9fb6ff" stroke-opacity=".25"/>
    <circle cx="116" cy="104" r="56" fill="#36f2aa" opacity=".2"/>
    <path d="M62 248c42-88 126-76 150 0" fill="none" stroke="url(#line)" stroke-width="12" stroke-linecap="round"/>
  </g>
  <path d="M95 444h710" stroke="url(#line)" stroke-width="2" opacity=".55"/>
  <text x="92" y="492" fill="#eef6ff" font-family="Inter, Arial" font-size="42" font-weight="800">ASSET CLOUD</text>
  <text x="96" y="526" fill="#9fb0d4" font-family="Inter, Arial" font-size="18" letter-spacing="4">CC0 CHARACTER / BACKGROUND KIT</text>
</svg>
