<svg xmlns="http://www.w3.org/2000/svg" viewBox="0 0 900 560" role="img" aria-label="Premium characters pack cover">
  <defs>
    <linearGradient id="bg" x1="0" x2="1" y1="0" y2="1"><stop stop-color="#06111f"/><stop offset=".48" stop-color="#1d174b"/><stop offset="1" stop-color="#07333b"/></linearGradient>
    <linearGradient id="card" x1="0" x2="1"><stop stop-color="#55d6ff"/><stop offset=".55" stop-color="#9b7cff"/><stop offset="1" stop-color="#55ffcf"/></linearGradient>
    <filter id="glow" x="-40%" y="-40%" width="180%" height="180%"><feGaussianBlur stdDeviation="12" result="b"/><feMerge><feMergeNode in="b"/><feMergeNode in="SourceGraphic"/></feMerge></filter>
  </defs>
  <rect width="900" height="560" fill="url(#bg)"/>
  <circle cx="710" cy="120" r="176" fill="#9b7cff" opacity=".16" filter="url(#glow)"/>
  <circle cx="174" cy="396" r="190" fill="#55ffcf" opacity=".12" filter="url(#glow)"/>
  <g transform="translate(94 86)">
    <rect x="0" y="0" width="168" height="260" rx="24" fill="#fff" opacity=".08" stroke="#a7bbff" stroke-opacity=".25"/>
    <rect x="202" y="42" width="168" height="260" rx="24" fill="#fff" opacity=".1" stroke="url(#card)" stroke-width="2"/>
    <rect x="404" y="0" width="168" height="260" rx="24" fill="#fff" opacity=".08" stroke="#a7bbff" stroke-opacity=".25"/>
    <rect x="606" y="42" width="168" height="260" rx="24" fill="#fff" opacity=".1" stroke="url(#card)" stroke-width="2"/>
    <g fill="url(#card)" opacity=".85" filter="url(#glow)">
      <circle cx="84" cy="86" r="38"/><path d="M42 196c10-52 72-70 126 0z"/>
      <circle cx="286" cy="128" r="38"/><path d="M244 238c16-54 76-68 126 0z"/>
      <circle cx="488" cy="86" r="38"/><path d="M446 196c14-56 78-66 126 0z"/>
      <circle cx="690" cy="128" r="38"/><path d="M648 238c18-52 78-70 126 0z"/>
    </g>
  </g>
  <path d="M94 410h774" stroke="url(#card)" stroke-width="2" opacity=".55"/>
  <text x="92" y="492" fill="#eef6ff" font-family="Inter, Arial" font-size="42" font-weight="800">CHARACTER VAULT</text>
  <text x="96" y="526" fill="#9fb0d4" font-family="Inter, Arial" font-size="18" letter-spacing="4">PNG / SVG ROLE MATERIALS</text>
</svg>
