<svg xmlns="http://www.w3.org/2000/svg" viewBox="0 0 900 560" role="img" aria-label="Premium visual novel engine cover">
  <defs>
    <linearGradient id="bg" x1="0" x2="1" y1="0" y2="1"><stop stop-color="#050816"/><stop offset=".46" stop-color="#111d46"/><stop offset="1" stop-color="#062f36"/></linearGradient>
    <linearGradient id="node" x1="0" x2="1"><stop stop-color="#50d5ff"/><stop offset=".58" stop-color="#8f7bff"/><stop offset="1" stop-color="#36f2aa"/></linearGradient>
    <filter id="glow" x="-40%" y="-40%" width="180%" height="180%"><feGaussianBlur stdDeviation="12" result="b"/><feMerge><feMergeNode in="b"/><feMergeNode in="SourceGraphic"/></feMerge></filter>
  </defs>
  <rect width="900" height="560" fill="url(#bg)"/>
  <circle cx="220" cy="168" r="170" fill="#50d5ff" opacity=".12" filter="url(#glow)"/>
  <circle cx="704" cy="348" r="210" fill="#36f2aa" opacity=".1" filter="url(#glow)"/>
  <g fill="#fff" opacity=".08" stroke="#a7bbff" stroke-opacity=".22">
    <rect x="96" y="98" width="224" height="126" rx="22"/>
    <rect x="374" y="72" width="230" height="148" rx="22"/>
    <rect x="632" y="146" width="190" height="118" rx="22"/>
    <rect x="164" y="306" width="230" height="132" rx="22"/>
    <rect x="496" y="316" width="266" height="126" rx="22"/>
  </g>
  <g stroke="url(#node)" stroke-width="5" stroke-linecap="round" opacity=".8" filter="url(#glow)">
    <path d="M320 160h54M604 150l32 38M252 224l42 82M394 372h102M604 220l-52 96"/>
  </g>
  <g fill="url(#node)" filter="url(#glow)">
    <circle cx="320" cy="160" r="12"/><circle cx="374" cy="160" r="12"/><circle cx="604" cy="150" r="12"/><circle cx="636" cy="188" r="12"/><circle cx="252" cy="224" r="12"/><circle cx="294" cy="306" r="12"/><circle cx="394" cy="372" r="12"/><circle cx="496" cy="372" r="12"/><circle cx="604" cy="220" r="12"/><circle cx="552" cy="316" r="12"/>
  </g>
  <text x="92" y="492" fill="#eef6ff" font-family="Inter, Arial" font-size="42" font-weight="800">NARRATIVE OS</text>
  <text x="96" y="526" fill="#9fb0d4" font-family="Inter, Arial" font-size="18" letter-spacing="4">VISUAL NOVEL ENGINE</text>
</svg>
