<svg xmlns="http://www.w3.org/2000/svg" viewBox="0 0 900 560" role="img" aria-label="Premium background music cover">
  <defs>
    <linearGradient id="bg" x1="0" x2="1" y1="0" y2="1"><stop stop-color="#050816"/><stop offset=".5" stop-color="#172049"/><stop offset="1" stop-color="#052f42"/></linearGradient>
    <linearGradient id="wave" x1="0" x2="1"><stop stop-color="#50d5ff"/><stop offset=".5" stop-color="#8f7bff"/><stop offset="1" stop-color="#36f2aa"/></linearGradient>
    <filter id="glow" x="-40%" y="-40%" width="180%" height="180%"><feGaussianBlur stdDeviation="13" result="b"/><feMerge><feMergeNode in="b"/><feMergeNode in="SourceGraphic"/></feMerge></filter>
  </defs>
  <rect width="900" height="560" fill="url(#bg)"/>
  <circle cx="710" cy="148" r="174" fill="#50d5ff" opacity=".14" filter="url(#glow)"/>
  <path d="M80 360h80v-76h64v76h70V226h72v134h68V178h80v182h70V250h70v110h74" fill="#fff" opacity=".08"/>
  <path d="M82 310c70-92 130-92 180 0s112 92 182 0 132-92 194 0 126 92 220 0" fill="none" stroke="url(#wave)" stroke-width="9" stroke-linecap="round" filter="url(#glow)"/>
  <g transform="translate(118 116)" fill="#fff" opacity=".14">
    <rect x="0" y="142" width="28" height="86" rx="14"/><rect x="52" y="90" width="28" height="138" rx="14"/><rect x="104" y="124" width="28" height="104" rx="14"/><rect x="156" y="48" width="28" height="180" rx="14"/><rect x="208" y="112" width="28" height="116" rx="14"/><rect x="260" y="72" width="28" height="156" rx="14"/>
  </g>
  <circle cx="626" cy="238" r="88" fill="#fff" opacity=".08" stroke="url(#wave)" stroke-width="5"/>
  <circle cx="626" cy="238" r="28" fill="url(#wave)" opacity=".78"/>
  <text x="92" y="492" fill="#eef6ff" font-family="Inter, Arial" font-size="42" font-weight="800">AMBIENT AUDIO</text>
  <text x="96" y="526" fill="#9fb0d4" font-family="Inter, Arial" font-size="18" letter-spacing="4">EMPTY CITY SOUND PACK</text>
</svg>
