<svg xmlns="http://www.w3.org/2000/svg" viewBox="0 0 900 560" role="img" aria-label="Premium rhythm game template cover">
  <defs>
    <linearGradient id="bg" x1="0" x2="1" y1="0" y2="1"><stop stop-color="#06111f"/><stop offset=".48" stop-color="#20104b"/><stop offset="1" stop-color="#071f38"/></linearGradient>
    <linearGradient id="lane" x1="0" x2="1"><stop stop-color="#55d6ff"/><stop offset=".5" stop-color="#9b7cff"/><stop offset="1" stop-color="#ff68c8"/></linearGradient>
    <filter id="glow" x="-35%" y="-35%" width="170%" height="170%"><feGaussianBlur stdDeviation="12" result="b"/><feMerge><feMergeNode in="b"/><feMergeNode in="SourceGraphic"/></feMerge></filter>
  </defs>
  <rect width="900" height="560" fill="url(#bg)"/>
  <path d="M170 82h560l120 390H50z" fill="#fff" opacity=".07" stroke="#a7bbff" stroke-opacity=".2"/>
  <g stroke="url(#lane)" stroke-width="5" opacity=".7" filter="url(#glow)">
    <path d="M282 96L170 468"/><path d="M392 96L334 468"/><path d="M502 96L502 468"/><path d="M612 96L666 468"/><path d="M722 96L830 468"/>
  </g>
  <g fill="url(#lane)" filter="url(#glow)">
    <rect x="224" y="318" width="86" height="28" rx="14"/>
    <rect x="372" y="238" width="86" height="28" rx="14"/>
    <rect x="476" y="374" width="86" height="28" rx="14"/>
    <rect x="618" y="286" width="86" height="28" rx="14"/>
    <rect x="696" y="190" width="86" height="28" rx="14"/>
  </g>
  <circle cx="450" cy="254" r="86" fill="none" stroke="url(#lane)" stroke-width="8" opacity=".65" filter="url(#glow)"/>
  <circle cx="450" cy="254" r="26" fill="#fff" opacity=".72"/>
  <text x="92" y="492" fill="#eef6ff" font-family="Inter, Arial" font-size="42" font-weight="800">RHYTHM CORE</text>
  <text x="96" y="526" fill="#9fb0d4" font-family="Inter, Arial" font-size="18" letter-spacing="4">INTERACTIVE GAME TEMPLATE</text>
</svg>
