<svg xmlns="http://www.w3.org/2000/svg" viewBox="0 0 900 560" role="img" aria-label="Premium RPG sprites cover">
  <defs>
    <linearGradient id="bg" x1="0" x2="1" y1="0" y2="1"><stop stop-color="#07101f"/><stop offset=".52" stop-color="#121b40"/><stop offset="1" stop-color="#173036"/></linearGradient>
    <linearGradient id="px" x1="0" x2="1"><stop stop-color="#55d6ff"/><stop offset=".55" stop-color="#9b7cff"/><stop offset="1" stop-color="#55ffcf"/></linearGradient>
    <filter id="glow" x="-40%" y="-40%" width="180%" height="180%"><feGaussianBlur stdDeviation="9" result="b"/><feMerge><feMergeNode in="b"/><feMergeNode in="SourceGraphic"/></feMerge></filter>
  </defs>
  <rect width="900" height="560" fill="url(#bg)"/>
  <g opacity=".16" fill="#fff">
    <rect x="90" y="70" width="28" height="28"/><rect x="150" y="70" width="28" height="28"/><rect x="210" y="70" width="28" height="28"/><rect x="270" y="70" width="28" height="28"/>
    <rect x="646" y="356" width="28" height="28"/><rect x="706" y="356" width="28" height="28"/><rect x="766" y="356" width="28" height="28"/>
  </g>
  <g transform="translate(226 86)" filter="url(#glow)">
    <rect x="96" y="0" width="124" height="124" rx="18" fill="url(#px)" opacity=".86"/>
    <rect x="60" y="112" width="196" height="188" rx="18" fill="#fff" opacity=".12" stroke="url(#px)" stroke-width="5"/>
    <rect x="88" y="142" width="40" height="40" fill="#55d6ff"/><rect x="188" y="142" width="40" height="40" fill="#55ffcf"/>
    <rect x="110" y="220" width="96" height="34" fill="#9b7cff"/>
    <rect x="26" y="184" width="54" height="118" rx="14" fill="#55d6ff" opacity=".52"/>
    <rect x="236" y="184" width="54" height="118" rx="14" fill="#55ffcf" opacity=".52"/>
    <rect x="88" y="300" width="58" height="86" rx="14" fill="#8f7bff" opacity=".72"/>
    <rect x="170" y="300" width="58" height="86" rx="14" fill="#50d5ff" opacity=".72"/>
  </g>
  <rect x="80" y="96" width="760" height="324" rx="30" fill="none" stroke="#a7bbff" stroke-opacity=".22"/>
  <text x="92" y="492" fill="#eef6ff" font-family="Inter, Arial" font-size="42" font-weight="800">SPRITE SYSTEM</text>
  <text x="96" y="526" fill="#9fb0d4" font-family="Inter, Arial" font-size="18" letter-spacing="4">PIXEL CHARACTER ATLAS</text>
</svg>
